<?xml version="1.0" encoding="utf-8"?>
<!-- Generator: Adobe Illustrator 19.0.1, SVG Export Plug-In . SVG Version: 6.00 Build 0)  -->
<svg version="1.1"
		 id="Layer_1"
		 xmlns="http://www.w3.org/2000/svg"
		 xmlns:xlink="http://www.w3.org/1999/xlink"
		 x="0px"
		 y="0px"
		 viewBox="0 0 600 600"
		 style="enable-background:new 0 0 600 600;"
		 xml:space="preserve">
	<style type="text/css">
		.st0 {
			fill: #007BB5;
		}
	</style>
	<g>
		<path class="st0"
					d="M83.8,166.2c-9.8-9.7-14.8-21.6-14.8-35.8c0-15.2,5.2-27.4,15.7-36.8c10.5-9.4,24.3-14,41.4-14
		c15.5,0,28.2,4.7,38.2,14c10,9.4,15.6,21.6,16.9,36.8c0,14.2-5.3,26.1-16,35.8c-10.6,9.7-24.2,14.5-40.6,14.5
		C107.2,180.8,93.6,175.9,83.8,166.2z M174,520.4H74.3v-298H174V520.4z M531,520.4h-99.7V361.7c0-20-3.7-36.4-11.1-49.1
		c-7.4-12.7-20-19.1-37.7-19.1c-14.2,0-25.4,3.8-33.6,11.4c-8.2,7.6-14.3,15.9-18.1,24.9c-1.6,3.2-2.4,7-2.4,11.4
		c0,4.4,0,8.6,0,12.8v166.4h-98.7V382V222.4h98.7v42.6c6.8-10.3,16.6-21.1,29.5-32.4c12.9-11.3,32.9-16.9,60-16.9
		c32.9,0,60,10.8,81.3,32.4c21.3,21.6,31.9,55.6,31.9,102.1V520.4z M328.3,266.4v-1.5c-1,0-1.5,0.5-1.5,1.5H328.3z" />
	</g>
</svg>