<svg width="93px"
     height="93px"
     xmlns="http://www.w3.org/2000/svg"
     viewBox="0 0 93 93">
  <g fill="none">
    <g>
      <path d="M62.598 20.857c9.997 0 18.979 4.358 25.07 11.323c2.07 2.335 5.936.74 5.624-2.373a34.77 34.77 0 0 0-1.172-6.148C89.035 12.685 80.21 4.125 69.16 1.245c-22.22-5.837-42.214 10.74-42.214 31.947c0 1.362.078 2.724.235 4.047c.39 3.074 4.53 3.852 6.014 1.129a33.349 33.349 0 0 1 29.404-17.511z"
            fill="#FFA30F"></path>
      <path d="M20.933 30.625A32.973 32.973 0 0 1 32.296 5.643C34.64 3.581 33.038-.27 29.914.04c-2.07.195-4.14.584-6.209 1.129C12.693 4.282 4.102 13.037 1.212 24.049c-5.818 22.18 10.817 42.103 32.1 42.103c1.366 0 2.733-.078 4.06-.234c3.086-.389 3.867-4.513 1.133-5.992c-10.465-5.604-17.573-16.616-17.573-29.3z"
            fill="#149EF2"></path>
      <path d="M30.734 72.143c-9.997 0-18.979-4.358-25.07-11.323c-2.07-2.335-5.936-.74-5.624 2.373a34.763 34.763 0 0 0 1.172 6.148c3.085 10.974 11.91 19.534 22.961 22.414c22.259 5.798 42.253-10.779 42.253-31.986c0-1.362-.079-2.724-.235-4.047c-.39-3.074-4.53-3.852-6.014-1.128c-5.662 10.467-16.713 17.55-29.443 17.55z"
            fill="#F20057"></path>
      <path d="M72.4 62.376a32.973 32.973 0 0 1-11.364 24.982c-2.343 2.062-.742 5.914 2.383 5.603c2.03-.194 4.1-.584 6.17-1.167C80.6 88.72 89.191 79.926 92.08 68.914C97.9 46.733 81.264 26.81 59.982 26.81a35.03 35.03 0 0 0-4.061.233c-3.085.39-3.866 4.514-1.133 5.992C65.293 38.68 72.4 49.691 72.4 62.376z"
            fill="#8252DE"></path>
    </g>
  </g>
</svg>